<?xml version="1.0" standalone="no"?><!DOCTYPE svg PUBLIC "-//W3C//DTD SVG 1.1//EN" "http://www.w3.org/Graphics/SVG/1.1/DTD/svg11.dtd"><svg t="1685111368892" class="icon" viewBox="0 0 1024 1024" version="1.1" xmlns="http://www.w3.org/2000/svg" p-id="19043" xmlns:xlink="http://www.w3.org/1999/xlink" width="32" height="32"><path d="M420.266667 360.106667a21.333333 21.333333 0 0 1 0 30.293333l-29.866667 29.866667a21.333333 21.333333 0 0 1-30.293333 0L225.28 285.013333 164.693333 345.6A21.333333 21.333333 0 0 1 128 330.666667V149.333333a22.186667 22.186667 0 0 1 21.333333-21.333333h181.333334a21.333333 21.333333 0 0 1 15.36 36.266667L285.44 224.853333z m-29.866667 243.626666a21.333333 21.333333 0 0 0-30.293333 0l-135.253334 134.826667-60.586666-60.586667a21.333333 21.333333 0 0 0-36.266667 15.36v181.333334a22.186667 22.186667 0 0 0 21.333333 21.333333h181.333334a21.333333 21.333333 0 0 0 14.933333-36.266667l-60.586667-61.013333 135.253334-134.826667a21.333333 21.333333 0 0 0 0-30.293333z m469.333333 74.666667l-60.586666 60.586667-134.826667-135.253334a21.333333 21.333333 0 0 0-30.293333 0l-29.866667 29.866667a21.333333 21.333333 0 0 0 0 30.293333l134.826667 135.253334-60.586667 60.586666a21.333333 21.333333 0 0 0 15.36 36.266667h180.906667a22.186667 22.186667 0 0 0 21.333333-21.333333v-181.333334a21.333333 21.333333 0 0 0-36.693333-14.933333zM874.666667 128h-181.333334a21.333333 21.333333 0 0 0-14.933333 36.266667l60.586667 60.586666-135.253334 135.253334a21.333333 21.333333 0 0 0 0 30.293333l29.866667 29.866667a21.333333 21.333333 0 0 0 30.293333 0l135.253334-134.826667 60.586666 60.586667a21.333333 21.333333 0 0 0 36.266667-15.36V149.333333a22.186667 22.186667 0 0 0-21.333333-21.333333z" p-id="19044" fill="#1296db"></path></svg>